<svg height="512pt" viewBox="0 0 512 512.00124" width="512pt" xmlns="http://www.w3.org/2000/svg"><path d="m501.152344 176.683594-10.324219-7.550782-15.707031-11.628906-53.371094-39.308594c-4.042969-2.96875-8.808594-4.796874-13.796875-5.296874l-.089844-.085938-.085937.085938c-.777344-.070313-1.558594-.097657-2.34375-.085938h-290.191406c-.78125-.011719-1.5625.015625-2.339844.085938h-.175782c-4.988281.5-9.753906 2.328124-13.796874 5.296874l-79.402344 58.488282c-7.246094 5.3125-11.300782 13.941406-10.761719 22.910156.277344 5.484375 2.28125 10.738281 5.726563 15.011719l231.527343 290.539062c3.492188 4.335938 8.753907 6.855469 14.320313 6.855469 5.5625 0 10.828125-2.519531 14.320312-6.855469l231.527344-290.539062c3.441406-4.273438 5.449219-9.527344 5.726562-15.011719.539063-8.96875-3.515624-17.597656-10.761718-22.910156zm0 0" fill="#5496ce"/><path d="m511.914062 199.59375h-69.335937l-34.625-86.695312c4.988281.5 9.753906 2.328124 13.796875 5.296874l53.371094 39.308594 15.707031 11.628906 10.324219 7.550782c7.246094 5.3125 11.300781 13.941406 10.761718 22.910156zm0 0" fill="#bddcf3"/><path d="m442.578125 199.59375h-78.101563l43.300782-86.695312h.175781zm0 0" fill="#5496ce"/><path d="m407.777344 112.898438-43.300782 86.695312-43.390624-86.78125h84.347656c.785156-.011719 1.566406.015625 2.34375.085938zm0 0" fill="#bddcf3"/><path d="m364.476562 199.59375h-104.136718l60.746094-86.78125zm0 0" fill="#5496ce"/><g fill="#bddcf3"><path d="m321.085938 112.8125-60.746094 86.78125-60.746094-86.78125zm0 0"/><path d="m199.59375 112.8125-43.390625 86.78125-43.300781-86.695312c.777344-.070313 1.558594-.097657 2.339844-.085938zm0 0"/><path d="m112.726562 112.898438-34.625 86.695312h-69.335937c-.539063-8.96875 3.515625-17.597656 10.761719-22.910156l79.402344-58.488282c4.042968-2.96875 8.808593-4.796874 13.796874-5.296874zm0 0"/></g><path d="m260.339844 512c-5.574219.046875-10.859375-2.484375-14.320313-6.855469l-231.527343-290.539062c-3.445313-4.273438-5.449219-9.527344-5.726563-15.011719h69.335937zm0 0" fill="#5496ce"/><path d="m260.339844 512-182.238282-312.40625h78.101563zm0 0" fill="#336a93"/><path d="m511.914062 199.59375c-.277343 5.484375-2.285156 10.738281-5.726562 15.011719l-231.527344 290.539062c-3.460937 4.371094-8.746094 6.902344-14.320312 6.855469l91.117187-156.203125 50.59375-86.78125 40.527344-69.421875zm0 0" fill="#336a93"/><path d="m156.203125 199.59375h-78.101563l34.625-86.695312h.175782zm0 0" fill="#5496ce"/><path d="m260.339844 199.59375h-104.136719l43.390625-86.78125zm0 0" fill="#336a93"/><path d="m364.476562 199.59375-104.136718 312.40625v-312.40625zm0 0" fill="#336a93"/><path d="m442.578125 199.59375-40.527344 69.421875-50.59375 86.78125-91.117187 156.203125 104.136718-312.40625zm0 0" fill="#5496ce"/><path d="m260.339844 199.59375v312.40625l-104.136719-312.40625zm0 0" fill="#5496ce"/><path d="m381.832031 138.847656-26.035156-130.167968-26.035156 130.167968-130.167969 26.035156 130.167969 26.03125 26.035156 130.171876 26.035156-130.171876 130.167969-26.03125zm0 0" fill="#ebeced"/><path d="m34.710938 69.421875c-4.792969 0-8.675782-3.882813-8.675782-8.675781v-8.679688c0-4.792968-3.886718-8.675781-8.679687-8.675781h-8.675781c-4.792969 0-8.679688-3.886719-8.679688-8.679687 0-4.792969 3.886719-8.675782 8.679688-8.675782h8.675781c4.792969 0 8.679687-3.886718 8.679687-8.679687v-8.675781c0-4.792969 3.882813-8.679688 8.675782-8.679688 4.792968 0 8.679687 3.886719 8.679687 8.679688v8.675781c0 4.792969 3.886719 8.679687 8.679687 8.679687h8.675782c4.792968 0 8.679687 3.882813 8.679687 8.675782 0 4.792968-3.886719 8.679687-8.679687 8.679687h-8.675782c-4.792968 0-8.679687 3.882813-8.679687 8.675781v8.679688c0 4.792968-3.886719 8.675781-8.679687 8.675781zm0 0" fill="#bddcf3"/><path d="m95.457031 485.964844c-4.792969 0-8.675781-3.882813-8.675781-8.675782v-8.679687c0-4.792969-3.886719-8.675781-8.679688-8.675781h-8.675781c-4.792969 0-8.679687-3.886719-8.679687-8.679688 0-4.792968 3.886718-8.675781 8.679687-8.675781h8.675781c4.792969 0 8.679688-3.886719 8.679688-8.679687v-8.679688c0-4.792969 3.882812-8.675781 8.675781-8.675781s8.679688 3.882812 8.679688 8.675781v8.679688c0 4.792968 3.882812 8.679687 8.675781 8.679687h8.679688c4.792968 0 8.679687 3.882813 8.679687 8.675781 0 4.792969-3.886719 8.679688-8.679687 8.679688h-8.679688c-4.792969 0-8.675781 3.882812-8.675781 8.675781v8.679687c0 4.792969-3.886719 8.675782-8.679688 8.675782zm0 0" fill="#bddcf3"/></svg>